<svg width="66" height="66" viewBox="0 0 66 66" fill="none" xmlns="http://www.w3.org/2000/svg">
<g id="Group 80">
<rect id="Rectangle 231" width="8.04878" height="8.04878" fill="#BBCE9B"/>
<rect id="Rectangle 241" y="14.4878" width="8.04878" height="8.04878" fill="#BBCE9B"/>
<rect id="Rectangle 251" y="28.9756" width="8.04878" height="8.04878" fill="#BBCE9B"/>
<rect id="Rectangle 261" y="43.4634" width="8.04878" height="8.04878" fill="#BBCE9B"/>
<rect id="Rectangle 271" y="57.9512" width="8.04878" height="8.04878" fill="#BBCE9B"/>
<rect id="Rectangle 232" x="14.4883" width="8.04878" height="8.04878" fill="#BBCE9B"/>
<rect id="Rectangle 242" x="14.4883" y="14.4878" width="8.04878" height="8.04878" fill="#BBCE9B"/>
<rect id="Rectangle 252" x="14.4883" y="28.9756" width="8.04878" height="8.04878" fill="#BBCE9B"/>
<rect id="Rectangle 262" x="14.4883" y="43.4634" width="8.04878" height="8.04878" fill="#BBCE9B"/>
<rect id="Rectangle 272" x="14.4883" y="57.9512" width="8.04878" height="8.04878" fill="#BBCE9B"/>
<rect id="Rectangle 233" x="28.9756" width="8.04878" height="8.04878" fill="#BBCE9B"/>
<rect id="Rectangle 243" x="28.9756" y="14.4878" width="8.04878" height="8.04878" fill="#BBCE9B"/>
<rect id="Rectangle 253" x="28.9756" y="28.9756" width="8.04878" height="8.04878" fill="#BBCE9B"/>
<rect id="Rectangle 263" x="28.9756" y="43.4634" width="8.04878" height="8.04878" fill="#BBCE9B"/>
<rect id="Rectangle 273" x="28.9756" y="57.9512" width="8.04878" height="8.04878" fill="#BBCE9B"/>
<rect id="Rectangle 234" x="43.4639" width="8.04878" height="8.04878" fill="#BBCE9B"/>
<rect id="Rectangle 244" x="43.4639" y="14.4878" width="8.04878" height="8.04878" fill="#BBCE9B"/>
<rect id="Rectangle 254" x="43.4639" y="28.9756" width="8.04878" height="8.04878" fill="#BBCE9B"/>
<rect id="Rectangle 264" x="43.4639" y="43.4634" width="8.04878" height="8.04878" fill="#BBCE9B"/>
<rect id="Rectangle 274" x="43.4639" y="57.9512" width="8.04878" height="8.04878" fill="#BBCE9B"/>
<rect id="Rectangle 235" x="57.9512" width="8.04878" height="8.04878" fill="#BBCE9B"/>
<rect id="Rectangle 245" x="57.9512" y="14.4878" width="8.04878" height="8.04878" fill="#BBCE9B"/>
<rect id="Rectangle 255" x="57.9512" y="28.9756" width="8.04878" height="8.04878" fill="#BBCE9B"/>
<rect id="Rectangle 265" x="57.9512" y="43.4634" width="8.04878" height="8.04878" fill="#BBCE9B"/>
<rect id="Rectangle 275" x="57.9512" y="57.9512" width="8.04878" height="8.04878" fill="#BBCE9B"/>
</g>
</svg>
